# xmcd
#
# Track frame offsets:
#	150
#	13545
#	30849
#	48584
#	61158
#	73113
#	87650
#	106972
#	120512
#	144563
#	155519
#	171345
#	186478
#	200441
#	214112
#	227000
#	245548
#	263001
#	280628
#	296973
#	309305
#	325031
#	340130
#
# Disc length: 4742 seconds
#
# Revision: 0
# Processed by: cddbd v1.5.2PL0 Copyright (c) Steve Scherf et al.
# Submitted via: EZCDAudioConverter 2.4.0.1
#
DISCID=50128417
DTITLE=Vários - América - Rodeio
DYEAR=2005
DGENRE=Sertanejo
TTITLE0=Gian and Giovani - Peão de Vitrine
TTITLE1=Rick and Renner - Nóis Tropica, Mas Não Cai
TTITLE2=Alan Jackson - Chattahoochee
TTITLE3=Rionegro and Solimões - Na Sola da Bota
TTITLE4=Hugo and Tiago - Oito Segundos
TTITLE5=Big and Rich - ´Save a Horse (Ride a Cowboy)
TTITLE6=Marlon and Maicon - Coração Aventureiro
TTITLE7=Cezar and Paulinho - Se Tiver Mulher 'Nois Vai'
TTITLE8=Keith Urban - Somebody Like You
TTITLE9=Teodoro and Sampaio - Garanhão Da Madrugada
TTITLE10=Tânia Mara - Amor Ou Paixão
TTITLE11=Billy Ray Cyrus - Achy Breaky Heart
TTITLE12=Bruno and Marrone - Apaziguar
TTITLE13=Luiz Cláudio and Giuliano - Eu Sou Peão
TTITLE14=Zezé Di Camargo and Luciano - Fera Mansa
TTITLE15=Shanya Twain - Any Man O Mine
TTITLE16=Garth Brooks - Standing Outside the Fire
TTITLE17=Chitãozinho and Xororó - Aqui o Sistema é Bruto
TTITLE18=Cezar and Paulinho Feat. Daniel - Noís é Cowboy (Nois é Xiki Nu Úrtimo)
TTITLE19=Rionegro and Solimões - Rodopiou
TTITLE20=Chitãozinho and Xororó - Bailão De Peão
TTITLE21=Daniel - Estourou Um Cano
TTITLE22=Edson and Hudson Feat. Rionegro and Solimões - O Bicho Vai Pegar
EXTD=
EXTT0=
EXTT1=
EXTT2=
EXTT3=
EXTT4=
EXTT5=
EXTT6=
EXTT7=
EXTT8=
EXTT9=
EXTT10=
EXTT11=
EXTT12=
EXTT13=
EXTT14=
EXTT15=
EXTT16=
EXTT17=
EXTT18=
EXTT19=
EXTT20=
EXTT21=
EXTT22=
PLAYORDER=
